#N canvas -8 -8 1280 637 10;
#X obj -34 29 dsp;
#X obj -34 8 tgl 15 0 empty empty empty 17 7 0 10 -262144 -1 -1 0 1
;
#X obj 544 592 sendOSC;
#X msg 84 579 connect localhost 12000;
#X msg 51 512 send /direccion \$1;
#X floatatom 964 465 5 0 0 0 - - -;
#X msg 964 490 send /rojo \$1;
#X floatatom 1201 467 5 0 0 0 - - -;
#X floatatom 1455 470 5 0 0 0 - - -;
#X msg 1201 491 send /verde \$1;
#X msg 1455 492 send /azul \$1;
#X msg 129 552 disconnect;
#X obj 538 294 noteout;
#X msg 582 269 1;
#X obj 544 21 key;
#X floatatom 544 42 5 0 0 0 - - -;
#X msg 530 268 60;
#X obj 665 280 noteout;
#X msg 709 255 1;
#X obj 747 270 bng 15 250 50 0 empty empty empty 17 7 0 10 -262144
-1 -1;
#X obj 730 317 noteout;
#X msg 774 292 1;
#X obj 819 239 bng 15 250 50 0 empty empty empty 17 7 0 10 -262144
-1 -1;
#X obj 802 286 noteout;
#X msg 846 261 1;
#X obj 885 272 bng 15 250 50 0 empty empty empty 17 7 0 10 -262144
-1 -1;
#X obj 868 319 noteout;
#X msg 912 294 1;
#X obj 969 271 bng 15 250 50 0 empty empty empty 17 7 0 10 -262144
-1 -1;
#X obj 952 318 noteout;
#X msg 996 293 1;
#X obj 1044 244 bng 15 250 50 0 empty empty empty 17 7 0 10 -262144
-1 -1;
#X obj 1027 291 noteout;
#X msg 1071 266 1;
#X obj 1109 273 bng 15 250 50 0 empty empty empty 17 7 0 10 -262144
-1 -1;
#X obj 1092 320 noteout;
#X msg 1136 295 1;
#X obj 1184 246 bng 15 250 50 0 empty empty empty 17 7 0 10 -262144
-1 -1;
#X obj 1167 293 noteout;
#X msg 1211 268 1;
#X obj 1246 278 bng 15 250 50 0 empty empty empty 17 7 0 10 -262144
-1 -1;
#X obj 1229 325 noteout;
#X msg 1273 300 1;
#X obj 1321 247 bng 15 250 50 0 empty empty empty 17 7 0 10 -262144
-1 -1;
#X obj 1304 294 noteout;
#X msg 1348 269 1;
#X obj 1388 276 bng 15 250 50 0 empty empty empty 17 7 0 10 -262144
-1 -1;
#X obj 1371 323 noteout;
#X msg 1415 298 1;
#X obj 556 241 bng 15 250 50 0 empty empty empty 17 7 0 10 -262144
-1 -1;
#X obj 680 230 bng 15 250 50 0 empty empty empty 17 7 0 10 -262144
-1 -1;
#X msg 655 255 61;
#X msg 720 292 62;
#X msg 792 261 63;
#X msg 858 294 64;
#X msg 942 293 65;
#X msg 1017 266 66;
#X msg 1082 295 67;
#X msg 1157 268 68;
#X msg 1219 300 69;
#X msg 1294 269 70;
#X msg 1361 298 71;
#X floatatom -29 478 5 0 0 0 - - -;
#X msg 778 403 0;
#X msg 836 404 100;
#X msg 555 268 200;
#X msg 682 254 200;
#X msg 747 291 200;
#X msg 819 260 200;
#X msg 885 293 200;
#X msg 969 292 200;
#X msg 1044 265 200;
#X msg 1109 294 200;
#X msg 1184 267 200;
#X msg 1246 299 200;
#X msg 1321 268 200;
#X msg 1388 297 200;
#X obj -280 260 noteout;
#X msg -236 235 1;
#X obj -215 283 noteout;
#X msg -171 258 1;
#X obj -126 212 bng 15 250 50 0 empty empty empty 17 7 0 10 -262144
-1 -1;
#X obj -143 259 noteout;
#X msg -99 234 1;
#X obj -59 235 bng 15 250 50 0 empty empty empty 17 7 0 10 -262144
-1 -1;
#X obj -76 282 noteout;
#X msg -32 257 1;
#X obj 26 237 bng 15 250 50 0 empty empty empty 17 7 0 10 -262144 -1
-1;
#X obj 9 284 noteout;
#X msg 53 259 1;
#X obj 97 215 bng 15 250 50 0 empty empty empty 17 7 0 10 -262144 -1
-1;
#X obj 80 262 noteout;
#X msg 124 237 1;
#X obj 160 240 bng 15 250 50 0 empty empty empty 17 7 0 10 -262144
-1 -1;
#X obj 143 287 noteout;
#X msg 187 262 1;
#X obj 234 217 bng 15 250 50 0 empty empty empty 17 7 0 10 -262144
-1 -1;
#X obj 217 264 noteout;
#X msg 261 239 1;
#X obj 297 243 bng 15 250 50 0 empty empty empty 17 7 0 10 -262144
-1 -1;
#X obj 280 290 noteout;
#X msg 324 265 1;
#X obj 371 220 bng 15 250 50 0 empty empty empty 17 7 0 10 -262144
-1 -1;
#X obj 354 267 noteout;
#X msg 398 242 1;
#X obj 435 244 bng 15 250 50 0 empty empty empty 17 7 0 10 -262144
-1 -1;
#X obj 418 291 noteout;
#X msg 462 266 1;
#X obj -262 207 bng 15 250 50 0 empty empty empty 17 7 0 10 -262144
-1 -1;
#X obj -200 233 bng 15 250 50 0 empty empty empty 17 7 0 10 -262144
-1 -1;
#X msg -263 234 200;
#X msg -198 257 200;
#X msg -126 233 200;
#X msg -59 256 200;
#X msg 26 258 200;
#X msg 97 236 200;
#X msg 160 261 200;
#X msg 234 238 200;
#X msg 297 264 200;
#X msg 371 241 200;
#X msg 435 265 200;
#X msg -602 397 -600;
#X msg -334 397 0;
#X obj -339 236 bng 15 250 50 0 empty empty empty 17 7 0 10 -262144
-1 -1;
#X obj -356 283 noteout;
#X msg -312 258 1;
#X msg -339 257 200;
#X text -355 214 Do4;
#X obj -761 207 bng 15 250 50 0 empty empty empty 17 7 0 10 -262144
-1 -1;
#X obj -778 254 noteout;
#X msg -734 229 1;
#X obj -698 232 bng 15 250 50 0 empty empty empty 17 7 0 10 -262144
-1 -1;
#X obj -715 279 noteout;
#X msg -671 254 1;
#X obj -624 209 bng 15 250 50 0 empty empty empty 17 7 0 10 -262144
-1 -1;
#X obj -641 256 noteout;
#X msg -597 231 1;
#X obj -561 235 bng 15 250 50 0 empty empty empty 17 7 0 10 -262144
-1 -1;
#X obj -578 282 noteout;
#X msg -534 257 1;
#X obj -487 212 bng 15 250 50 0 empty empty empty 17 7 0 10 -262144
-1 -1;
#X obj -504 259 noteout;
#X msg -460 234 1;
#X obj -423 236 bng 15 250 50 0 empty empty empty 17 7 0 10 -262144
-1 -1;
#X obj -440 283 noteout;
#X msg -396 258 1;
#X msg -761 228 200;
#X msg -698 253 200;
#X msg -624 230 200;
#X msg -561 256 200;
#X msg -487 233 200;
#X msg -423 257 200;
#X msg -547 397 0;
#X msg -503 397 -500;
#X msg -446 397 0;
#X msg -395 397 -400;
#X msg -277 396 -300;
#X msg -218 396 0;
#X msg -173 397 -200;
#X msg -120 397 0;
#X msg 193 396 0;
#X msg -20 396 0;
#X msg 81 396 0;
#X msg 250 395 500;
#X msg 132 396 400;
#X msg 24 396 300;
#X msg -75 396 200;
#X text 708 2 Do5 122(z) Do# 115(s) Re 120(x) Re# 100(d) Mi 99(c) Fa
118(v) Fa# 103(g) Sol 98(b) Sol# 104(h) La 110(n) La# 106(j) Si 109(m)
Do6 44( \, ) Do# 108(l) Re 46(.) Re# 241(ñ) Mi 45(-);
#X obj 724 58 select 122 115 120 100 99 118 103 98 104 110 106 109
44 108 46 241 45;
#X obj 1454 323 noteout;
#X msg 1498 298 1;
#X obj 1535 301 noteout;
#X msg 1579 276 1;
#X obj 1617 291 bng 15 250 50 0 empty empty empty 17 7 0 10 -262144
-1 -1;
#X obj 1600 338 noteout;
#X msg 1644 313 1;
#X obj 1689 260 bng 15 250 50 0 empty empty empty 17 7 0 10 -262144
-1 -1;
#X obj 1672 307 noteout;
#X msg 1716 282 1;
#X obj 1755 293 bng 15 250 50 0 empty empty empty 17 7 0 10 -262144
-1 -1;
#X obj 1738 340 noteout;
#X msg 1782 315 1;
#X obj 1472 270 bng 15 250 50 0 empty empty empty 17 7 0 10 -262144
-1 -1;
#X obj 1550 251 bng 15 250 50 0 empty empty empty 17 7 0 10 -262144
-1 -1;
#X msg 1471 297 200;
#X msg 1552 275 200;
#X msg 1617 312 200;
#X msg 1689 281 200;
#X msg 1755 314 200;
#X text 1450 250 Do6;
#X msg 906 404 0;
#X msg 977 403 200;
#X msg 1049 403 0;
#X msg 1116 404 300;
#X msg 1201 404 0;
#X msg 1344 404 0;
#X msg 1487 403 0;
#X msg 1639 404 0;
#X msg 1274 404 400;
#X msg 1415 403 500;
#X msg 1554 404 600;
#X msg 1446 297 72;
#X msg 1525 276 73;
#X msg 1590 313 74;
#X msg 1662 282 75;
#X msg 1728 315 76;
#X msg 309 395 0;
#X msg 370 395 600;
#X text 88 4 Fa# 49(1) Sol 113(q) Sol# 50(2) La 119(w) La# 51(3) Si
101(e) Do4 114(r) Do# 53(5) Re 116(t) Re# 54(6) Mi 121(y) Fa 117(u)
Fa# 56(8) Sol 105(i) Sol# 57(9) La 111(o) La# 48(0) Si 112(p) Do5 39(')
;
#X obj 54 59 select 49 113 50 119 51 101 114 53 116 54 121 117 56 105
57 111 48 112 39;
#X text 549 217 Do5;
#X msg 408 266 59;
#X msg 344 242 58;
#X msg 270 265 57;
#X msg 207 239 56;
#X msg 133 262 55;
#X msg 70 237 54;
#X msg -1 258 53;
#X msg -86 257 52;
#X msg -153 234 51;
#X msg -225 258 50;
#X msg -288 234 49;
#X msg -366 258 48;
#X msg -450 257 47;
#X msg -514 234 46;
#X msg -588 257 45;
#X msg -651 231 44;
#X msg -725 254 43;
#X msg -788 229 42;
#X connect 1 0 0 0;
#X connect 3 0 2 0;
#X connect 4 0 2 0;
#X connect 5 0 6 0;
#X connect 6 0 2 0;
#X connect 7 0 9 0;
#X connect 8 0 10 0;
#X connect 9 0 2 0;
#X connect 10 0 2 0;
#X connect 11 0 2 0;
#X connect 13 0 12 2;
#X connect 14 0 15 0;
#X connect 15 0 168 0;
#X connect 15 0 209 0;
#X connect 16 0 12 0;
#X connect 18 0 17 2;
#X connect 19 0 52 0;
#X connect 19 0 67 0;
#X connect 19 0 21 0;
#X connect 19 0 191 0;
#X connect 21 0 20 2;
#X connect 22 0 53 0;
#X connect 22 0 68 0;
#X connect 22 0 24 0;
#X connect 22 0 193 0;
#X connect 24 0 23 2;
#X connect 25 0 54 0;
#X connect 25 0 69 0;
#X connect 25 0 27 0;
#X connect 25 0 190 0;
#X connect 27 0 26 2;
#X connect 28 0 55 0;
#X connect 28 0 70 0;
#X connect 28 0 30 0;
#X connect 28 0 192 0;
#X connect 30 0 29 2;
#X connect 31 0 56 0;
#X connect 31 0 71 0;
#X connect 31 0 33 0;
#X connect 31 0 198 0;
#X connect 31 0 190 0;
#X connect 33 0 32 2;
#X connect 34 0 57 0;
#X connect 34 0 72 0;
#X connect 34 0 36 0;
#X connect 34 0 193 0;
#X connect 36 0 35 2;
#X connect 37 0 58 0;
#X connect 37 0 73 0;
#X connect 37 0 39 0;
#X connect 37 0 195 0;
#X connect 39 0 38 2;
#X connect 40 0 59 0;
#X connect 40 0 74 0;
#X connect 40 0 42 0;
#X connect 40 0 193 0;
#X connect 42 0 41 2;
#X connect 43 0 60 0;
#X connect 43 0 75 0;
#X connect 43 0 45 0;
#X connect 43 0 194 0;
#X connect 45 0 44 2;
#X connect 46 0 61 0;
#X connect 46 0 76 0;
#X connect 46 0 48 0;
#X connect 46 0 195 0;
#X connect 48 0 47 2;
#X connect 49 0 16 0;
#X connect 49 0 65 0;
#X connect 49 0 13 0;
#X connect 49 0 64 0;
#X connect 49 0 207 0;
#X connect 50 0 51 0;
#X connect 50 0 66 0;
#X connect 50 0 18 0;
#X connect 50 0 63 0;
#X connect 51 0 17 0;
#X connect 52 0 20 0;
#X connect 53 0 23 0;
#X connect 54 0 26 0;
#X connect 55 0 29 0;
#X connect 56 0 32 0;
#X connect 57 0 35 0;
#X connect 58 0 38 0;
#X connect 59 0 41 0;
#X connect 60 0 44 0;
#X connect 61 0 47 0;
#X connect 62 0 4 0;
#X connect 63 0 5 0;
#X connect 64 0 7 0;
#X connect 64 0 8 0;
#X connect 65 0 12 1;
#X connect 66 0 17 1;
#X connect 67 0 20 1;
#X connect 68 0 23 1;
#X connect 69 0 26 1;
#X connect 70 0 29 1;
#X connect 71 0 32 1;
#X connect 72 0 35 1;
#X connect 73 0 38 1;
#X connect 74 0 41 1;
#X connect 75 0 44 1;
#X connect 76 0 47 1;
#X connect 78 0 77 2;
#X connect 80 0 79 2;
#X connect 81 0 219 0;
#X connect 81 0 112 0;
#X connect 81 0 83 0;
#X connect 81 0 159 0;
#X connect 83 0 82 2;
#X connect 84 0 218 0;
#X connect 84 0 113 0;
#X connect 84 0 86 0;
#X connect 84 0 166 0;
#X connect 86 0 85 2;
#X connect 87 0 217 0;
#X connect 87 0 114 0;
#X connect 87 0 89 0;
#X connect 87 0 161 0;
#X connect 89 0 88 2;
#X connect 90 0 216 0;
#X connect 90 0 115 0;
#X connect 90 0 92 0;
#X connect 90 0 165 0;
#X connect 92 0 91 2;
#X connect 93 0 215 0;
#X connect 93 0 116 0;
#X connect 93 0 95 0;
#X connect 93 0 162 0;
#X connect 95 0 94 2;
#X connect 96 0 214 0;
#X connect 96 0 117 0;
#X connect 96 0 98 0;
#X connect 96 0 164 0;
#X connect 98 0 97 2;
#X connect 99 0 213 0;
#X connect 99 0 118 0;
#X connect 99 0 101 0;
#X connect 99 0 160 0;
#X connect 101 0 100 2;
#X connect 102 0 212 0;
#X connect 102 0 119 0;
#X connect 102 0 104 0;
#X connect 102 0 163 0;
#X connect 104 0 103 2;
#X connect 105 0 211 0;
#X connect 105 0 120 0;
#X connect 105 0 107 0;
#X connect 105 0 206 0;
#X connect 107 0 106 2;
#X connect 108 0 221 0;
#X connect 108 0 110 0;
#X connect 108 0 78 0;
#X connect 108 0 157 0;
#X connect 109 0 220 0;
#X connect 109 0 111 0;
#X connect 109 0 80 0;
#X connect 109 0 158 0;
#X connect 110 0 77 1;
#X connect 111 0 79 1;
#X connect 112 0 82 1;
#X connect 113 0 85 1;
#X connect 114 0 88 1;
#X connect 115 0 91 1;
#X connect 116 0 94 1;
#X connect 117 0 97 1;
#X connect 118 0 100 1;
#X connect 119 0 103 1;
#X connect 120 0 106 1;
#X connect 121 0 62 0;
#X connect 122 0 62 0;
#X connect 123 0 222 0;
#X connect 123 0 126 0;
#X connect 123 0 125 0;
#X connect 123 0 156 0;
#X connect 125 0 124 2;
#X connect 126 0 124 1;
#X connect 128 0 228 0;
#X connect 128 0 146 0;
#X connect 128 0 130 0;
#X connect 128 0 152 0;
#X connect 128 0 121 0;
#X connect 130 0 129 2;
#X connect 131 0 227 0;
#X connect 131 0 147 0;
#X connect 131 0 133 0;
#X connect 131 0 121 0;
#X connect 133 0 132 2;
#X connect 134 0 226 0;
#X connect 134 0 148 0;
#X connect 134 0 136 0;
#X connect 134 0 154 0;
#X connect 136 0 135 2;
#X connect 137 0 225 0;
#X connect 137 0 149 0;
#X connect 137 0 139 0;
#X connect 137 0 153 0;
#X connect 139 0 138 2;
#X connect 140 0 224 0;
#X connect 140 0 150 0;
#X connect 140 0 142 0;
#X connect 140 0 122 0;
#X connect 142 0 141 2;
#X connect 143 0 223 0;
#X connect 143 0 151 0;
#X connect 143 0 145 0;
#X connect 143 0 155 0;
#X connect 145 0 144 2;
#X connect 146 0 129 1;
#X connect 147 0 132 1;
#X connect 148 0 135 1;
#X connect 149 0 138 1;
#X connect 150 0 141 1;
#X connect 151 0 144 1;
#X connect 152 0 62 0;
#X connect 153 0 62 0;
#X connect 154 0 62 0;
#X connect 155 0 62 0;
#X connect 156 0 62 0;
#X connect 157 0 62 0;
#X connect 158 0 62 0;
#X connect 159 0 62 0;
#X connect 160 0 62 0;
#X connect 161 0 62 0;
#X connect 162 0 62 0;
#X connect 163 0 62 0;
#X connect 164 0 62 0;
#X connect 165 0 62 0;
#X connect 166 0 62 0;
#X connect 168 0 49 0;
#X connect 168 1 50 0;
#X connect 168 2 19 0;
#X connect 168 3 22 0;
#X connect 168 4 25 0;
#X connect 168 5 28 0;
#X connect 168 6 31 0;
#X connect 168 7 34 0;
#X connect 168 8 37 0;
#X connect 168 9 40 0;
#X connect 168 10 43 0;
#X connect 168 11 46 0;
#X connect 168 12 182 0;
#X connect 168 13 183 0;
#X connect 168 14 173 0;
#X connect 168 15 176 0;
#X connect 168 16 179 0;
#X connect 170 0 169 2;
#X connect 172 0 171 2;
#X connect 173 0 203 0;
#X connect 173 0 186 0;
#X connect 173 0 175 0;
#X connect 173 0 199 0;
#X connect 175 0 174 2;
#X connect 176 0 204 0;
#X connect 176 0 187 0;
#X connect 176 0 178 0;
#X connect 176 0 197 0;
#X connect 178 0 177 2;
#X connect 179 0 205 0;
#X connect 179 0 188 0;
#X connect 179 0 181 0;
#X connect 179 0 200 0;
#X connect 181 0 180 2;
#X connect 182 0 201 0;
#X connect 182 0 184 0;
#X connect 182 0 170 0;
#X connect 182 0 198 0;
#X connect 183 0 202 0;
#X connect 183 0 185 0;
#X connect 183 0 172 0;
#X connect 183 0 196 0;
#X connect 184 0 169 1;
#X connect 185 0 171 1;
#X connect 186 0 174 1;
#X connect 187 0 177 1;
#X connect 188 0 180 1;
#X connect 190 0 7 0;
#X connect 191 0 5 0;
#X connect 191 0 7 0;
#X connect 192 0 5 0;
#X connect 193 0 7 0;
#X connect 193 0 5 0;
#X connect 194 0 7 0;
#X connect 195 0 8 0;
#X connect 196 0 7 0;
#X connect 197 0 8 0;
#X connect 198 0 7 0;
#X connect 198 0 8 0;
#X connect 199 0 8 0;
#X connect 199 0 7 0;
#X connect 200 0 7 0;
#X connect 200 0 5 0;
#X connect 201 0 169 0;
#X connect 202 0 171 0;
#X connect 203 0 174 0;
#X connect 204 0 177 0;
#X connect 205 0 180 0;
#X connect 206 0 62 0;
#X connect 207 0 62 0;
#X connect 209 0 128 0;
#X connect 209 1 131 0;
#X connect 209 2 134 0;
#X connect 209 3 137 0;
#X connect 209 4 140 0;
#X connect 209 5 143 0;
#X connect 209 6 123 0;
#X connect 209 7 108 0;
#X connect 209 8 109 0;
#X connect 209 9 81 0;
#X connect 209 10 84 0;
#X connect 209 11 87 0;
#X connect 209 12 90 0;
#X connect 209 13 93 0;
#X connect 209 14 96 0;
#X connect 209 15 99 0;
#X connect 209 16 102 0;
#X connect 209 17 105 0;
#X connect 209 18 49 0;
#X connect 211 0 106 0;
#X connect 212 0 103 0;
#X connect 213 0 100 0;
#X connect 214 0 97 0;
#X connect 215 0 94 0;
#X connect 216 0 91 0;
#X connect 217 0 88 0;
#X connect 218 0 85 0;
#X connect 219 0 82 0;
#X connect 220 0 79 0;
#X connect 221 0 77 0;
#X connect 222 0 124 0;
#X connect 223 0 144 0;
#X connect 224 0 141 0;
#X connect 225 0 138 0;
#X connect 226 0 135 0;
#X connect 227 0 132 0;
#X connect 228 0 129 0;
